<?xml version="1.0" encoding="UTF-8" standalone="no" ?>
<!DOCTYPE svg PUBLIC "-//W3C//DTD SVG 1.1//EN" "http://www.w3.org/Graphics/SVG/1.1/DTD/svg11.dtd">
<svg xmlns="http://www.w3.org/2000/svg" xmlns:xlink="http://www.w3.org/1999/xlink" version="1.1" width="500" height="500" viewBox="0 0 500 500" xml:space="preserve">
<desc>Created with Fabric.js 5.3.0</desc>
<defs>
</defs>
<g transform="matrix(1 0 0 1 177.8273809524 113.0952380952)" id="9wKBNHH3D0HLrdAGyZcyC"  >
<path style="stroke: rgb(0,0,0); stroke-width: 1; stroke-dasharray: none; stroke-linecap: butt; stroke-dashoffset: 0; stroke-linejoin: miter; stroke-miterlimit: 4; fill: rgb(255,255,255); fill-opacity: 0; fill-rule: nonzero; opacity: 1;" vector-effect="non-scaling-stroke"  transform=" translate(0, 0)" d="M 0 0" stroke-linecap="round" />
</g>
<g transform="matrix(-1.6493330607429654e+56 0 0 -1.6493330607429654e+56 194.6845238095 164.9226190476)" id="rg2Z4MKpD4t9lbzVWRBhK"  >
<path style="stroke: rgb(0,0,0); stroke-width: 1; stroke-dasharray: none; stroke-linecap: butt; stroke-dashoffset: 0; stroke-linejoin: miter; stroke-miterlimit: 4; fill: rgb(255,255,255); fill-opacity: 0; fill-rule: nonzero; opacity: 1;" vector-effect="non-scaling-stroke"  transform=" translate(0, 0)" d="M 0 0" stroke-linecap="round" />
</g>
<g transform="matrix(0.997895954 0 0 0.997895954 250.1772281055 250.2435687767)" id="gnidrmk6ICyH6ZbU_ZiI0"  >
<path style="stroke: rgb(127,127,127); stroke-width: 9; stroke-dasharray: none; stroke-linecap: butt; stroke-dashoffset: 0; stroke-linejoin: miter; stroke-miterlimit: 4; fill: rgb(251,239,221); fill-rule: nonzero; opacity: 1;" vector-effect="non-scaling-stroke"  transform=" translate(0, 0)" d="M -54.81548 -115.7621 L -84.23205 115.76209 L 84.23205 115.76209 L 54.31548 -115.7621 z" stroke-linecap="round" />
</g>
<g transform="matrix(1.3110047576 0 0 0.2751196392 250 325.776311183)" id="F4BsXw4uHkitnCYKcO8kM"  >
<path style="stroke: rgb(26,0,0); stroke-width: 0; stroke-dasharray: none; stroke-linecap: butt; stroke-dashoffset: 0; stroke-linejoin: miter; stroke-miterlimit: 4; fill: rgb(255,241,200); fill-opacity: 0; fill-rule: nonzero; opacity: 1;" vector-effect="non-scaling-stroke"  transform=" translate(0, 0)" d="M -50 15.48423 C -50 -20.68171 -43.84744 -50 -36.25787 -50 L 36.25787 -50 L 36.25787 -50 C 43.84744 -50 50 -20.68171 50 15.484229999999997 L 50 15.484229999999997 L 50 15.484229999999997 C 50 34.54675999999999 46.75708 50 42.75673 50 L -42.75673 50 L -42.75673 50 C -46.757079999999995 50 -50 34.54676 -50 15.484229999999997 z" stroke-linecap="round" />
</g>
<g transform="matrix(1.1345665215 0 0 0.2751196392 250 273.5753542452)" id="bcSDsV_h5aaMLqQo0ghgn"  >
<path style="stroke: rgb(26,0,0); stroke-width: 0; stroke-dasharray: none; stroke-linecap: butt; stroke-dashoffset: 0; stroke-linejoin: miter; stroke-miterlimit: 4; fill: rgb(255,241,200); fill-opacity: 0; fill-rule: nonzero; opacity: 1;" vector-effect="non-scaling-stroke"  transform=" translate(0, 0)" d="M -50 15.48423 C -50 -20.68171 -42.89064 -50 -34.12081 -50 L 34.12081 -50 L 34.12081 -50 C 42.89065 -50 50 -20.68171 50 15.484229999999997 L 50 15.484229999999997 L 50 15.484229999999997 C 50 34.54675999999999 46.25276 50 41.63031 50 L -41.630320000000005 50 L -41.630320000000005 50 C -46.252770000000005 50 -50.00001 34.54676 -50.00001 15.484229999999997 z" stroke-linecap="round" />
</g>
<g transform="matrix(0.9249578612 0 0 0.2751196392 250 223.7667418051)" id="gk9sFYZc14yPuYHBCr99R"  >
<path style="stroke: rgb(26,0,0); stroke-width: 0; stroke-dasharray: none; stroke-linecap: butt; stroke-dashoffset: 0; stroke-linejoin: miter; stroke-miterlimit: 4; fill: rgb(255,241,200); fill-opacity: 0; fill-rule: nonzero; opacity: 1;" vector-effect="non-scaling-stroke"  transform=" translate(0, 0)" d="M -50 15.48423 C -50 -20.68171 -41.279560000000004 -50 -30.52236 -50 L 30.52236 -50 L 30.52236 -50 C 41.27956 -50 50 -20.68171 50 15.484229999999997 L 50 15.484229999999997 L 50 15.484229999999997 C 50 34.54675999999999 45.40359 50 39.73362 50 L -39.733630000000005 50 L -39.733630000000005 50 C -45.40359000000001 50 -50.00001 34.54676 -50.00001 15.484229999999997 z" stroke-linecap="round" />
</g>
<g transform="matrix(0.621447363 0 0 0.2751196392 250 178.6786013786)" id="Cpyl5obmy4GOxX1LlFzjF"  >
<path style="stroke: rgb(26,0,0); stroke-width: 0; stroke-dasharray: none; stroke-linecap: butt; stroke-dashoffset: 0; stroke-linejoin: miter; stroke-miterlimit: 4; fill: rgb(255,241,200); fill-opacity: 0; fill-rule: nonzero; opacity: 1;" vector-effect="non-scaling-stroke"  transform=" translate(0, 0)" d="M -50 15.48423 C -50 -20.68171 -37.02056 -50 -21.00961 -50 L 21.00962 -50 L 21.00962 -50 C 37.020570000000006 -50 50.00001 -20.68171 50.00001 15.484229999999997 L 50.00001 15.484229999999997 L 50.00001 15.484229999999997 C 50.00001 34.54675999999999 43.15874 50 34.71961 50 L -34.71959 50 L -34.71959 50 C -43.158719999999995 50 -49.99999 34.54676 -49.99999 15.484229999999997 z" stroke-linecap="round" />
</g>
<g transform="matrix(1 0 0 1 250 326.1351697681)" id="MtR1y6wh8gFD2GbhcB3PQ"  >
<path style="stroke: rgb(26,0,0); stroke-width: 0; stroke-dasharray: none; stroke-linecap: butt; stroke-dashoffset: 0; stroke-linejoin: miter; stroke-miterlimit: 4; fill: rgb(46,46,46); fill-rule: nonzero; opacity: 1;" vector-effect="non-scaling-stroke"  transform=" translate(-14.1148409153, -14.1148409153)" d="M 14.11484 0 C 21.90623 0 28.22968 6.32345 28.22968 14.11484 C 28.22968 21.90623 21.906229999999997 28.22968 14.11484 28.22968 C 6.323449999999999 28.22968 0 21.906229999999997 0 14.11484 C 0 6.323449999999999 6.32345 0 14.11484 0 z" stroke-linecap="round" />
</g>
<g transform="matrix(0.0822217262 -0.0822217262 1.1774149803 1.1774149803 196.3889182314 272.2369986931)" id="NT_I3sI11YuLB7BeKrhbC"  >
<path style="stroke: rgb(26,0,0); stroke-width: 0; stroke-dasharray: none; stroke-linecap: butt; stroke-dashoffset: 0; stroke-linejoin: miter; stroke-miterlimit: 4; fill: rgb(46,46,46); fill-rule: nonzero; opacity: 1;" vector-effect="non-scaling-stroke"  transform=" translate(0, 0)" d="M -51.43541 -51.43541 L 51.43541 -51.43541 L 51.43541 51.43541 L -51.43541 51.43541 z" stroke-linecap="round" />
</g>
<g transform="matrix(0.4780439949 -0.4780439949 0.7071067812 0.7071067812 133.5928537268 209.4409341886)" id="kJAYDBl3iCMexa4gEdE_O"  >
<path style="stroke: rgb(26,0,0); stroke-width: 0; stroke-dasharray: none; stroke-linecap: butt; stroke-dashoffset: 0; stroke-linejoin: miter; stroke-miterlimit: 4; fill: rgb(46,46,46); fill-rule: nonzero; opacity: 1;" vector-effect="non-scaling-stroke"  transform=" translate(0, 0)" d="M -16.98565 -16.98565 L 16.985640000000004 -16.98565 L 16.985640000000004 16.985640000000004 L -16.98565 16.985640000000004 z" stroke-linecap="round" />
</g>
</svg>